<svg width="16" height="16" viewBox="0 0 16 16" fill="none" xmlns="http://www.w3.org/2000/svg">
<path d="M15 11.5563V2.50542C15 1.60558 14.314 0.938205 13.481 1.01319H13.439C11.969 1.14817 9.736 1.95052 8.49 2.79037L8.371 2.87285C8.168 3.00783 7.832 3.00783 7.629 2.87285L7.454 2.76037C6.208 1.92802 3.982 1.13317 2.512 1.00569C1.679 0.930706 1 1.60558 1 2.49792V11.5563C1 12.2761 1.546 12.951 2.218 13.041L2.421 13.071C3.94 13.2884 6.285 14.1133 7.629 14.9006L7.657 14.9156C7.846 15.0281 8.147 15.0281 8.329 14.9156C9.673 14.1208 12.025 13.2884 13.551 13.071L13.782 13.041C14.454 12.951 15 12.2761 15 11.5563Z" stroke="#84818A" stroke-width="1.5" stroke-linecap="round" stroke-linejoin="round"/>
<path d="M8 3.12029V14.3682" stroke="#84818A" stroke-width="1.5" stroke-linecap="round" stroke-linejoin="round"/>
<path d="M5.02501 5.36987H3.45001" stroke="#84818A" stroke-width="1.5" stroke-linecap="round" stroke-linejoin="round"/>
<path d="M5.55001 7.61946H3.45001" stroke="#84818A" stroke-width="1.5" stroke-linecap="round" stroke-linejoin="round"/>
</svg>
