<svg width="18" height="18" viewBox="0 0 18 18" fill="none" xmlns="http://www.w3.org/2000/svg">
<path d="M13.8204 5.12749C13.7723 5.11949 13.7162 5.11949 13.6681 5.12749C12.5622 5.08749 11.6807 4.1836 11.6807 3.06374C11.6807 1.91989 12.6023 1 13.7483 1C14.8943 1 15.8159 1.92789 15.8159 3.06374C15.8079 4.1836 14.9263 5.08749 13.8204 5.12749Z" stroke="#84818A" stroke-width="1.5" stroke-linecap="round" stroke-linejoin="round"/>
<path d="M12.995 10.9508C14.0929 11.1347 15.303 10.9428 16.1525 10.3748C17.2825 9.62293 17.2825 8.39109 16.1525 7.63918C15.295 7.07125 14.0689 6.87927 12.9709 7.07125" stroke="#84818A" stroke-width="1.5" stroke-linecap="round" stroke-linejoin="round"/>
<path d="M4.17958 5.12749C4.22766 5.11949 4.28376 5.11949 4.33184 5.12749C5.43778 5.08749 6.31932 4.1836 6.31932 3.06374C6.31932 1.91989 5.39771 1 4.2517 1C3.1057 1 2.18408 1.92789 2.18408 3.06374C2.1921 4.1836 3.07364 5.08749 4.17958 5.12749Z" stroke="#84818A" stroke-width="1.5" stroke-linecap="round" stroke-linejoin="round"/>
<path d="M5.00501 10.9508C3.90709 11.1347 2.69697 10.9428 1.84748 10.3748C0.717506 9.62293 0.717506 8.39109 1.84748 7.63918C2.70498 7.07125 3.93113 6.87927 5.02905 7.07125" stroke="#84818A" stroke-width="1.5" stroke-linecap="round" stroke-linejoin="round"/>
<path d="M9.01206 11.1027C8.96397 11.0947 8.90788 11.0947 8.85979 11.1027C7.75386 11.0628 6.87231 10.1589 6.87231 9.039C6.87231 7.89514 7.79393 6.97526 8.93993 6.97526C10.0859 6.97526 11.0076 7.90314 11.0076 9.039C10.9995 10.1589 10.118 11.0707 9.01206 11.1027Z" stroke="#84818A" stroke-width="1.5" stroke-linecap="round" stroke-linejoin="round"/>
<path d="M6.68 13.6224C5.55003 14.3743 5.55003 15.6062 6.68 16.3581C7.96225 17.214 10.0619 17.214 11.3442 16.3581C12.4741 15.6062 12.4741 14.3743 11.3442 13.6224C10.0699 12.7745 7.96225 12.7745 6.68 13.6224Z" stroke="#84818A" stroke-width="1.5" stroke-linecap="round" stroke-linejoin="round"/>
</svg>
