<svg width="18" height="18" viewBox="0 0 18 18" fill="none" xmlns="http://www.w3.org/2000/svg">
<path d="M6.6 17H11.4C15.4 17 17 15.4 17 11.4V6.6C17 2.6 15.4 1 11.4 1H6.6C2.6 1 1 2.6 1 6.6V11.4C1 15.4 2.6 17 6.6 17Z" stroke="#84818A" stroke-width="1.2" stroke-linecap="round" stroke-linejoin="round"/>
<path d="M11.856 14.2V11.08" stroke="#84818A" stroke-width="1.2" stroke-miterlimit="10" stroke-linecap="round" stroke-linejoin="round"/>
<path d="M11.856 5.36V3.8" stroke="#84818A" stroke-width="1.2" stroke-miterlimit="10" stroke-linecap="round" stroke-linejoin="round"/>
<path d="M11.856 9.51995C13.0048 9.51995 13.936 8.58871 13.936 7.43996C13.936 6.2912 13.0048 5.35995 11.856 5.35995C10.7072 5.35995 9.776 6.2912 9.776 7.43996C9.776 8.58871 10.7072 9.51995 11.856 9.51995Z" stroke="#84818A" stroke-width="1.2" stroke-miterlimit="10" stroke-linecap="round" stroke-linejoin="round"/>
<path d="M6.14398 14.2V12.64" stroke="#84818A" stroke-width="1.2" stroke-miterlimit="10" stroke-linecap="round" stroke-linejoin="round"/>
<path d="M6.14398 6.92V3.8" stroke="#84818A" stroke-width="1.2" stroke-miterlimit="10" stroke-linecap="round" stroke-linejoin="round"/>
<path d="M6.14403 12.64C7.29278 12.64 8.22403 11.7087 8.22403 10.56C8.22403 9.41123 7.29278 8.47998 6.14403 8.47998C4.99527 8.47998 4.06403 9.41123 4.06403 10.56C4.06403 11.7087 4.99527 12.64 6.14403 12.64Z" stroke="#84818A" stroke-width="1.2" stroke-miterlimit="10" stroke-linecap="round" stroke-linejoin="round"/>
</svg>
