<?xml version="1.0" encoding="UTF-8"?><svg id="Layer_2" xmlns="http://www.w3.org/2000/svg" viewBox="0 0 173.15 61.08"><defs><style>.cls-1{fill:#0071ce;}</style></defs><g id="Layer_1-2"><path class="cls-1" d="M91.51,60.39h-16.35l-16.69-43.05h14.29l10.27,30.73h.94l10.27-30.73h14.04l-16.78,43.05Z"/><rect class="cls-1" x="111.32" width="12.3" height="60.13"/><path class="cls-1" d="M161.54,17.64l-.43,4.9c-2.24-3.79-7.23-5.85-12.56-5.85-12.56-.17-22.28,8.09-22.28,22.2s9.21,22.28,21.94,22.2c4.13-.09,10.24-1.81,13.08-6.28l.69,5.33h11.18V17.64h-11.61ZM149.84,50.07c-6.19,0-11.18-4.13-11.18-11.18s4.99-11.27,11.18-11.27c7.4,0,11.27,5.59,11.27,11.7,0,5.33-4.3,10.75-11.27,10.75Z"/><path class="cls-1" d="M26.93.28h-.58l-.48,1.31-9.39,25.46c-1.2-.74-2.38-1.53-3.53-2.38-1.45-1.08-2.8-2.26-4.11-3.48L0,31.62c1.53,1.4,3.11,2.76,4.8,4.02,2.21,1.64,4.51,3.11,6.88,4.43l-7.49,20.33h14l5.59-15.24c5.52,1.64,11.27,2.48,17.09,2.48,2.57,0,5.16-.17,7.75-.5l4.83,13.26h14.63L45.91.28h-18.98ZM28.5,32.27l2.42-6.6,4.58-13.55h.9l4.4,13.55,2.98,8.19c-5.2.32-10.35-.23-15.28-1.59Z"/></g></svg>