<svg width="16" height="17" viewBox="0 0 16 17" fill="none" xmlns="http://www.w3.org/2000/svg">
<path d="M8.00012 10.6426L7.53264 11.0789L8.00012 11.5798L8.4676 11.0789L8.00012 10.6426ZM8.63959 1.00022C8.63959 0.647053 8.35329 0.360751 8.00012 0.360751C7.64695 0.360751 7.36065 0.647053 7.36065 1.00022L8.63959 1.00022ZM2.53264 5.72205L7.53264 11.0789L8.4676 10.2062L3.4676 4.84938L2.53264 5.72205ZM8.4676 11.0789L13.4676 5.72205L12.5326 4.84938L7.53264 10.2062L8.4676 11.0789ZM8.63959 10.6426L8.63959 1.00022L7.36065 1.00022L7.36065 10.6426L8.63959 10.6426Z" fill="#84818A"/>
<path d="M1.00024 12.7861L1.00024 13.8575C1.00024 15.0409 1.89567 16.0002 3.00024 16.0002L13.0002 16.0003C14.1048 16.0003 15.0002 15.0409 15.0002 13.8575V12.7861" stroke="#84818A" stroke-width="1.27895"/>
</svg>
