<svg width="18" height="18" viewBox="0 0 18 18" fill="none" xmlns="http://www.w3.org/2000/svg">
<path d="M15.2313 11.3401C13.5837 12.9804 11.2241 13.4846 9.1525 12.8364L5.38523 16.5972C5.11328 16.8772 4.57738 17.0453 4.19346 16.9893L2.44979 16.7492C1.8739 16.6692 1.33801 16.1251 1.25002 15.549L1.01007 13.8046C0.954079 13.4205 1.13804 12.8844 1.40199 12.6124L5.16127 8.8516C4.52139 6.77118 5.0173 4.4107 6.66498 2.77036C9.02453 0.409879 12.8558 0.409879 15.2233 2.77036C17.5909 5.13084 17.5909 8.97963 15.2313 11.3401Z" stroke="#84818A" stroke-width="1.5" stroke-miterlimit="10" stroke-linecap="round" stroke-linejoin="round"/>
<path d="M4.91333 13.3885L6.75298 15.2282" stroke="#84818A" stroke-width="1.5" stroke-miterlimit="10" stroke-linecap="round" stroke-linejoin="round"/>
<path d="M11.0001 8.19452C11.6627 8.19452 12.1998 7.65737 12.1998 6.99475C12.1998 6.33214 11.6627 5.79498 11.0001 5.79498C10.3374 5.79498 9.80029 6.33214 9.80029 6.99475C9.80029 7.65737 10.3374 8.19452 11.0001 8.19452Z" stroke="#84818A" stroke-width="1.5" stroke-linecap="round" stroke-linejoin="round"/>
</svg>
